{
    "asset" : {
        "generator" : "Khronos glTF Blender I/O v3.2.43",
        "version" : "2.0"
    },
    "scene" : 0,
    "scenes" : [
        {
            "name" : "Scene",
            "nodes" : [
                16
            ]
        }
    ],
    "nodes" : [
        {
            "mesh" : 0,
            "name" : "BezierCurve_Material.002_0"
        },
        {
            "children" : [
                0
            ],
            "name" : "BezierCurve",
            "rotation" : [
                -0.7071068286895752,
                0,
                0,
                0.7071067094802856
            ],
            "scale" : [
                99.99999237060547,
                99.99999237060547,
                99.99999237060547
            ]
        },
        {
            "mesh" : 1,
            "name" : "BezierCurve.001_Material.002_0"
        },
        {
            "children" : [
                2
            ],
            "name" : "BezierCurve.001",
            "rotation" : [
                -0.7071068286895752,
                0,
                0,
                0.7071067094802856
            ],
            "scale" : [
                99.99999237060547,
                99.99999237060547,
                99.99999237060547
            ]
        },
        {
            "mesh" : 2,
            "name" : "cerveau_Material_0"
        },
        {
            "children" : [
                4
            ],
            "name" : "cerveau",
            "rotation" : [
                -0.7071068286895752,
                0,
                0,
                0.7071067094802856
            ],
            "scale" : [
                25.07360076904297,
                25.073598861694336,
                25.073598861694336
            ],
            "translation" : [
                0,
                678.7174072265625,
                0
            ]
        },
        {
            "mesh" : 3,
            "name" : "Circle_Material.003_0"
        },
        {
            "children" : [
                6
            ],
            "name" : "Circle",
            "rotation" : [
                -0.7071068286895752,
                0,
                0,
                0.7071067094802856
            ],
            "scale" : [
                590.6429443359375,
                590.6428833007812,
                590.6428833007812
            ]
        },
        {
            "mesh" : 4,
            "name" : "Circle.001_Material.003_0"
        },
        {
            "children" : [
                8
            ],
            "name" : "Circle.001",
            "rotation" : [
                -0.7071068286895752,
                0,
                0,
                0.7071067094802856
            ],
            "scale" : [
                494.4508056640625,
                494.4507751464844,
                494.4507751464844
            ],
            "translation" : [
                0,
                1258.1263427734375,
                0
            ]
        },
        {
            "mesh" : 5,
            "name" : "Cube.001_Material_0"
        },
        {
            "children" : [
                10
            ],
            "name" : "Cube.001",
            "rotation" : [
                -0.7071068286895752,
                0,
                0,
                0.7071067094802856
            ],
            "scale" : [
                201.71173095703125,
                201.7117156982422,
                201.7117156982422
            ],
            "translation" : [
                0,
                810.2711181640625,
                0
            ]
        },
        {
            "mesh" : 6,
            "name" : "Cylinder_Material.001_0"
        },
        {
            "children" : [
                12
            ],
            "name" : "Cylinder",
            "rotation" : [
                -0.7071068286895752,
                0,
                0,
                0.7071067094802856
            ],
            "scale" : [
                411.54852294921875,
                411.5484924316406,
                411.5484924316406
            ],
            "translation" : [
                0,
                809.7706909179688,
                0
            ]
        },
        {
            "children" : [
                1,
                3,
                5,
                7,
                9,
                11,
                13
            ],
            "name" : "RootNode"
        },
        {
            "children" : [
                14
            ],
            "name" : "a03ea5d1d5d54b0ba0ac5b6738fd99cc.fbx",
            "rotation" : [
                0.7071068286895752,
                0,
                0,
                0.7071067094802856
            ],
            "scale" : [
                0.010000000707805157,
                0.010000000707805157,
                0.010000000707805157
            ]
        },
        {
            "children" : [
                15
            ],
            "name" : "Sketchfab_model",
            "rotation" : [
                -0.7071068286895752,
                0,
                0,
                0.7071067094802856
            ],
            "scale" : [
                0.10000000149011612,
                0.10000001639127731,
                0.10000001639127731
            ]
        }
    ],
    "materials" : [
        {
            "doubleSided" : true,
            "name" : "Material.004",
            "pbrMetallicRoughness" : {
                "baseColorFactor" : [
                    0.0048956298269331455,
                    0.0048956298269331455,
                    0.0048956298269331455,
                    1
                ],
                "metallicFactor" : 0,
                "roughnessFactor" : 0.2883787751197815
            }
        },
        {
            "doubleSided" : true,
            "name" : "Material.001",
            "pbrMetallicRoughness" : {
                "baseColorFactor" : [
                    0.800000011920929,
                    0.45336198806762695,
                    0.5419690012931824,
                    1
                ],
                "metallicFactor" : 0,
                "roughnessFactor" : 0.15428313612937927
            }
        },
        {
            "doubleSided" : true,
            "name" : "Material.003",
            "pbrMetallicRoughness" : {
                "baseColorFactor" : [
                    0.34238401055336,
                    0.2578989863395691,
                    0.2498140037059784,
                    1
                ],
                "roughnessFactor" : 0.21523571014404297
            }
        },
        {
            "alphaMode" : "BLEND",
            "doubleSided" : true,
            "name" : "Material.002",
            "pbrMetallicRoughness" : {
                "baseColorFactor" : [
                    0.800000011920929,
                    0.800000011920929,
                    0.800000011920929,
                    0.2727627456188202
                ],
                "metallicFactor" : 0,
                "roughnessFactor" : 0.8040408492088318
            }
        }
    ],
    "meshes" : [
        {
            "name" : "BezierCurve_Material.002_0",
            "primitives" : [
                {
                    "attributes" : {
                        "POSITION" : 0,
                        "NORMAL" : 1,
                        "TEXCOORD_0" : 2
                    },
                    "indices" : 3,
                    "material" : 0
                }
            ]
        },
        {
            "name" : "BezierCurve.001_Material.002_0",
            "primitives" : [
                {
                    "attributes" : {
                        "POSITION" : 4,
                        "NORMAL" : 5,
                        "TEXCOORD_0" : 6
                    },
                    "indices" : 7,
                    "material" : 0
                }
            ]
        },
        {
            "name" : "cerveau_Material_0",
            "primitives" : [
                {
                    "attributes" : {
                        "POSITION" : 8,
                        "NORMAL" : 9,
                        "TEXCOORD_0" : 10
                    },
                    "indices" : 11,
                    "material" : 1
                }
            ]
        },
        {
            "name" : "Circle_Material.003_0",
            "primitives" : [
                {
                    "attributes" : {
                        "POSITION" : 12,
                        "NORMAL" : 13,
                        "TEXCOORD_0" : 14
                    },
                    "indices" : 15,
                    "material" : 2
                }
            ]
        },
        {
            "name" : "Circle.001_Material.003_0",
            "primitives" : [
                {
                    "attributes" : {
                        "POSITION" : 16,
                        "NORMAL" : 17,
                        "TEXCOORD_0" : 18
                    },
                    "indices" : 19,
                    "material" : 2
                }
            ]
        },
        {
            "name" : "Cube.001_Material_0",
            "primitives" : [
                {
                    "attributes" : {
                        "POSITION" : 20,
                        "NORMAL" : 21,
                        "TEXCOORD_0" : 22
                    },
                    "indices" : 23,
                    "material" : 1
                }
            ]
        },
        {
            "name" : "Cylinder_Material.001_0",
            "primitives" : [
                {
                    "attributes" : {
                        "POSITION" : 24,
                        "NORMAL" : 25,
                        "TEXCOORD_0" : 26
                    },
                    "indices" : 27,
                    "material" : 3
                }
            ]
        }
    ],
    "accessors" : [
        {
            "bufferView" : 0,
            "componentType" : 5126,
            "count" : 2693,
            "max" : [
                2.637310743331909,
                2.375582456588745,
                13.112150192260742
            ],
            "min" : [
                -2.9504847526550293,
                -2.1530563831329346,
                7.858956813812256
            ],
            "type" : "VEC3"
        },
        {
            "bufferView" : 1,
            "componentType" : 5126,
            "count" : 2693,
            "type" : "VEC3"
        },
        {
            "bufferView" : 2,
            "componentType" : 5126,
            "count" : 2693,
            "type" : "VEC2"
        },
        {
            "bufferView" : 3,
            "componentType" : 5123,
            "count" : 12516,
            "type" : "SCALAR"
        },
        {
            "bufferView" : 4,
            "componentType" : 5126,
            "count" : 3237,
            "max" : [
                5.2509894371032715,
                4.797085285186768,
                3.558037281036377
            ],
            "min" : [
                -4.679130554199219,
                -4.9400787353515625,
                1.7825976610183716
            ],
            "type" : "VEC3"
        },
        {
            "bufferView" : 5,
            "componentType" : 5126,
            "count" : 3237,
            "type" : "VEC3"
        },
        {
            "bufferView" : 6,
            "componentType" : 5126,
            "count" : 3237,
            "type" : "VEC2"
        },
        {
            "bufferView" : 7,
            "componentType" : 5123,
            "count" : 17280,
            "type" : "SCALAR"
        },
        {
            "bufferView" : 8,
            "componentType" : 5126,
            "count" : 26202,
            "max" : [
                7.442666053771973,
                10.37969970703125,
                13.694931983947754
            ],
            "min" : [
                -7.442666053771973,
                -9.18654727935791,
                -1.7702348232269287
            ],
            "type" : "VEC3"
        },
        {
            "bufferView" : 9,
            "componentType" : 5126,
            "count" : 26202,
            "type" : "VEC3"
        },
        {
            "bufferView" : 10,
            "componentType" : 5126,
            "count" : 26202,
            "type" : "VEC2"
        },
        {
            "bufferView" : 11,
            "componentType" : 5123,
            "count" : 129024,
            "type" : "SCALAR"
        },
        {
            "bufferView" : 12,
            "componentType" : 5126,
            "count" : 2183,
            "max" : [
                0.8504481911659241,
                0.8504481315612793,
                0.6603297591209412
            ],
            "min" : [
                -0.8504481911659241,
                -0.8504481911659241,
                0.2672039270401001
            ],
            "type" : "VEC3"
        },
        {
            "bufferView" : 13,
            "componentType" : 5126,
            "count" : 2183,
            "type" : "VEC3"
        },
        {
            "bufferView" : 14,
            "componentType" : 5126,
            "count" : 2183,
            "type" : "VEC2"
        },
        {
            "bufferView" : 15,
            "componentType" : 5123,
            "count" : 12096,
            "type" : "SCALAR"
        },
        {
            "bufferView" : 16,
            "componentType" : 5126,
            "count" : 674,
            "max" : [
                0.9879766702651978,
                0.9879765510559082,
                0.14209720492362976
            ],
            "min" : [
                -0.9879765510559082,
                -0.9879765510559082,
                -0.03475701063871384
            ],
            "type" : "VEC3"
        },
        {
            "bufferView" : 17,
            "componentType" : 5126,
            "count" : 674,
            "type" : "VEC3"
        },
        {
            "bufferView" : 18,
            "componentType" : 5126,
            "count" : 674,
            "type" : "VEC2"
        },
        {
            "bufferView" : 19,
            "componentType" : 5123,
            "count" : 4032,
            "type" : "SCALAR"
        },
        {
            "bufferView" : 20,
            "componentType" : 5126,
            "count" : 2136,
            "max" : [
                0.8053292632102966,
                1.1018606424331665,
                0.9920962452888489
            ],
            "min" : [
                -0.8238176107406616,
                -1.0820525884628296,
                -1.4257376194000244
            ],
            "type" : "VEC3"
        },
        {
            "bufferView" : 21,
            "componentType" : 5126,
            "count" : 2136,
            "type" : "VEC3"
        },
        {
            "bufferView" : 22,
            "componentType" : 5126,
            "count" : 2136,
            "type" : "VEC2"
        },
        {
            "bufferView" : 23,
            "componentType" : 5123,
            "count" : 10560,
            "type" : "SCALAR"
        },
        {
            "bufferView" : 24,
            "componentType" : 5126,
            "count" : 2196,
            "max" : [
                0.9553419947624207,
                0.9553418755531311,
                1.1508452892303467
            ],
            "min" : [
                -0.9553419947624207,
                -0.9553419947624207,
                -1.2514883279800415
            ],
            "type" : "VEC3"
        },
        {
            "bufferView" : 25,
            "componentType" : 5126,
            "count" : 2196,
            "type" : "VEC3"
        },
        {
            "bufferView" : 26,
            "componentType" : 5126,
            "count" : 2196,
            "type" : "VEC2"
        },
        {
            "bufferView" : 27,
            "componentType" : 5123,
            "count" : 10944,
            "type" : "SCALAR"
        }
    ],
    "bufferViews" : [
        {
            "buffer" : 0,
            "byteLength" : 32316,
            "byteOffset" : 0
        },
        {
            "buffer" : 0,
            "byteLength" : 32316,
            "byteOffset" : 32316
        },
        {
            "buffer" : 0,
            "byteLength" : 21544,
            "byteOffset" : 64632
        },
        {
            "buffer" : 0,
            "byteLength" : 25032,
            "byteOffset" : 86176
        },
        {
            "buffer" : 0,
            "byteLength" : 38844,
            "byteOffset" : 111208
        },
        {
            "buffer" : 0,
            "byteLength" : 38844,
            "byteOffset" : 150052
        },
        {
            "buffer" : 0,
            "byteLength" : 25896,
            "byteOffset" : 188896
        },
        {
            "buffer" : 0,
            "byteLength" : 34560,
            "byteOffset" : 214792
        },
        {
            "buffer" : 0,
            "byteLength" : 314424,
            "byteOffset" : 249352
        },
        {
            "buffer" : 0,
            "byteLength" : 314424,
            "byteOffset" : 563776
        },
        {
            "buffer" : 0,
            "byteLength" : 209616,
            "byteOffset" : 878200
        },
        {
            "buffer" : 0,
            "byteLength" : 258048,
            "byteOffset" : 1087816
        },
        {
            "buffer" : 0,
            "byteLength" : 26196,
            "byteOffset" : 1345864
        },
        {
            "buffer" : 0,
            "byteLength" : 26196,
            "byteOffset" : 1372060
        },
        {
            "buffer" : 0,
            "byteLength" : 17464,
            "byteOffset" : 1398256
        },
        {
            "buffer" : 0,
            "byteLength" : 24192,
            "byteOffset" : 1415720
        },
        {
            "buffer" : 0,
            "byteLength" : 8088,
            "byteOffset" : 1439912
        },
        {
            "buffer" : 0,
            "byteLength" : 8088,
            "byteOffset" : 1448000
        },
        {
            "buffer" : 0,
            "byteLength" : 5392,
            "byteOffset" : 1456088
        },
        {
            "buffer" : 0,
            "byteLength" : 8064,
            "byteOffset" : 1461480
        },
        {
            "buffer" : 0,
            "byteLength" : 25632,
            "byteOffset" : 1469544
        },
        {
            "buffer" : 0,
            "byteLength" : 25632,
            "byteOffset" : 1495176
        },
        {
            "buffer" : 0,
            "byteLength" : 17088,
            "byteOffset" : 1520808
        },
        {
            "buffer" : 0,
            "byteLength" : 21120,
            "byteOffset" : 1537896
        },
        {
            "buffer" : 0,
            "byteLength" : 26352,
            "byteOffset" : 1559016
        },
        {
            "buffer" : 0,
            "byteLength" : 26352,
            "byteOffset" : 1585368
        },
        {
            "buffer" : 0,
            "byteLength" : 17568,
            "byteOffset" : 1611720
        },
        {
            "buffer" : 0,
            "byteLength" : 21888,
            "byteOffset" : 1629288
        }
    ],
    "buffers" : [
        {
            "byteLength" : 1651176,
            "uri" : "data:application/octet-stream;base64,"
        }
    ]
}
